# xmcd
#
# Track frame offsets:
#	150
#	17212
#	36586
#	55698
#	67354
#
# Disc length: 1015 seconds
#
# Revision: 2
# Processed by: cddbd v1.5.2PL0 Copyright (c) Steve Scherf et al.
# Submitted via: audiograbber 1.81.03
#
DISCID=4803f505
DTITLE=Alexandru Andries - Editie Speciala
DYEAR=2006
DGENRE=Blues
TTITLE0=Vals cu tine
TTITLE1=Incurabil
TTITLE2=Toti barbatii sunt soferi
TTITLE3=Am intrebat un militian
TTITLE4=Acru/Dulce
EXTD=A7A Records Romania CAT 180923-2
EXTT0=
EXTT1=
EXTT2=
EXTT3=
EXTT4=
PLAYORDER=
